:FULLY-SPECIFIED
:FORCE-ALL-JOINTS-BE-3DOF
:DEGREES
816
root -4.44283 14.7364 -40.2347 403.32 -74.5508 325.792
lfemur -70.4976 15.6523 -22.0254
ltibia 78.8103 0 0
lfoot -7.63369 7.69855 0
ltoes -15.2906 0 0
rfemur -31.6509 -5.51851 24.1151
rtibia 71.6466 0 0
rfoot -32.5531 -27.5255 0
rtoes -24.6819 0 0
lowerback 18.0848 1.11901 3.35726
upperback 0.597407 2.32765 2.5115
thorax -9.48578 0.984155 0.239276
lowerneck -1.96632 12.9497 4.33991
upperneck -1.83225 17.2365 -9.94969
head 1.09754 8.5866 -3.4768
lclavicle -2.90425e-014 1.96349e-015 0
lhumerus 102.043 -32.9445 21.4752
lradius 93.9691 0 0
lwrist 21.0777 0 0
lhand -9.06043 23.8312 0
lfingers 7.12502 0 0
lthumb 16.8891 53.1331 0
rclavicle -2.90425e-014 1.96349e-015 0
rhumerus 23.3014 32.9486 -58.336
rradius 62.2966 0 0
rwrist -12.6808 0 0
rhand -14.1439 -42.4641 0
rfingers 7.12502 0 0
rthumb 11.9969 -72.1779 0
817
root -4.27594 14.7463 -40.2837 398.325 -74.1306 330.912
lfemur -70.9134 16.872 -23.1615
ltibia 81.4275 0 0
lfoot -8.01894 8.21668 0
ltoes -15.6488 0 0
rfemur -32.2662 -6.64116 24.0967
rtibia 71.715 0 0
rfoot -32.8693 -27.499 0
rtoes -23.807 0 0
lowerback 18.1382 1.0343 3.32754
upperback 0.573087 2.217 2.52933
thorax -9.54812 0.932073 0.299551
lowerneck -2.01537 12.9706 4.31044
upperneck -1.81893 17.2658 -10.048
head 1.12165 8.60006 -3.4987
lclavicle -2.85148e-014 1.9751e-015 0
lhumerus 103.449 -33.2839 20.4366
lradius 96.2174 0 0
lwrist 20.3732 0 0
lhand -9.21768 23.5766 0
lfingers 7.12502 0 0
lthumb 16.7374 52.8851 0
rclavicle -2.85148e-014 1.9751e-015 0
rhumerus 24.8986 34.5677 -57.4976
rradius 62.8652 0 0
rwrist -11.8463 0 0
rhand -14.1576 -42.1458 0
rfingers 7.12502 0 0
rthumb 11.9824 -71.8459 0
818
root -4.10905 14.7562 -40.3327 393.807 -73.7075 335.528
lfemur -71.1566 17.9469 -24.0171
ltibia 83.6109 0 0
lfoot -8.2857 8.70705 0
ltoes -15.8957 0 0
rfemur -32.8146 -7.66246 24.0625
rtibia 71.7688 0 0
rfoot -33.1201 -27.4797 0
rtoes -23.0292 0 0
lowerback 18.1842 0.965752 3.30186
upperback 0.547086 2.12772 2.54206
thorax -9.60721 0.889973 0.346961
lowerneck -2.06702 12.981 4.28817
upperneck -1.78511 17.2817 -10.1253
head 1.15021 8.60652 -3.51497
lclavicle -2.79082e-014 1.92029e-015 0
lhumerus 104.535 -33.6435 19.503
lradius 98.3455 0 0
lwrist 19.7208 0 0
lhand -9.36051 23.3761 0
lfingers 7.12502 0 0
lthumb 16.5997 52.6913 0
rclavicle -2.79082e-014 1.92029e-015 0
rhumerus 26.425 36.1282 -56.6004
rradius 63.4725 0 0
rwrist -10.9853 0 0
rhand -14.0845 -41.7761 0
rfingers 7.12502 0 0
rthumb 12.0513 -71.4544 0
819
root -3.94216 14.7661 -40.3817 389.829 -73.2852 339.575
lfemur -71.2072 18.8541 -24.5579
ltibia 85.2999 0 0
lfoot -8.41969 9.16506 0
ltoes -16.0173 0 0
rfemur -33.2888 -8.56535 24.0132
rtibia 71.8069 0 0
rfoot -33.2977 -27.4696 0
rtoes -22.3641 0 0
lowerback 18.2224 0.915435 3.28107
upperback 0.51955 2.0626 2.54883
thorax -9.66245 0.859131 0.379443
lowerneck -2.12105 12.9807 4.27439
upperneck -1.72912 17.2838 -10.1799
head 1.18355 8.60571 -3.5253
lclavicle -2.72177e-014 1.79378e-015 0
lhumerus 105.264 -34.0307 18.6801
lradius 100.34 0 0
lwrist 19.1427 0 0
lhand -9.48351 23.236 0
lfingers 7.12502 0 0
lthumb 16.4811 52.5577 0
rclavicle -2.72177e-014 1.79378e-015 0
rhumerus 27.876 37.6168 -55.6395
rradius 64.1145 0 0
rwrist -10.095 0 0
rhand -13.9186 -41.3522 0
rfingers 7.12502 0 0
rthumb 12.2096 -71 0
820
root -3.77527 14.776 -40.4307 386.453 -72.8675 342.986
lfemur -71.045 19.571 -24.7501
ltibia 86.4337 0 0
lfoot -8.40667 9.58613 0
ltoes -15.9996 0 0
rfemur -33.6815 -9.33276 23.9497
rtibia 71.8282 0 0
rfoot -33.3942 -27.4709 0
rtoes -21.8273 0 0
lowerback 18.2522 0.885413 3.26605
upperback 0.490623 2.02441 2.54879
thorax -9.71323 0.840823 0.394933
lowerneck -2.17725 12.9692 4.27036
upperneck -1.64931 17.2716 -10.2103
head 1.222 8.59733 -3.52939
lclavicle -2.64384e-014 1.59028e-015 0
lhumerus 105.599 -34.4529 17.9737
lradius 102.187 0 0
lwrist 18.6607 0 0
lhand -9.58125 23.1628 0
lfingers 7.12502 0 0
lthumb 16.3869 52.4906 0
rclavicle -2.64384e-014 1.59028e-015 0
rhumerus 29.247 39.0203 -54.6099
rradius 64.7872 0 0
rwrist -9.17263 0 0
rhand -13.6536 -40.8712 0
rfingers 7.12502 0 0
rthumb 12.4631 -70.4795 0
821
root -3.69539 14.7862 -40.4053 383.614 -72.4463 345.833
lfemur -70.6552 20.1358 -24.5815
ltibia 87.0723 0 0
lfoot -8.23972 9.99537 0
ltoes -15.8257 0 0
rfemur -34.0163 -10.0071 23.8631
rtibia 71.8369 0 0
rfoot -33.412 -27.4762 0
rtoes -21.3906 0 0
lowerback 18.2743 0.875644 3.25663
upperback 0.457789 2.01339 2.54339
thorax -9.76282 0.835134 0.394903
lowerneck -2.23818 12.9432 4.27768
upperneck -1.54029 17.2409 -10.2161
head 1.26767 8.57915 -3.52725
lclavicle -2.5442e-014 1.26893e-015 0
lhumerus 105.597 -34.9353 17.3713
lradius 104.005 0 0
lwrist 18.2039 0 0
lhand -9.64511 23.1496 0
lfingers 7.12502 0 0
lthumb 16.3254 52.4841 0
rclavicle -2.5442e-014 1.26893e-015 0
rhumerus 30.6713 40.4551 -53.3986
rradius 65.5326 0 0
rwrist -8.11189 0 0
rhand -13.2363 -40.2982 0
rfingers 7.12502 0 0
rthumb 12.8629 -69.851 0
